<svg xmlns="http://www.w3.org/2000/svg" xmlns:xlink="http://www.w3.org/1999/xlink" width="512" zoomAndPan="magnify" viewBox="0 0 384 383.999986" height="512" preserveAspectRatio="xMidYMid meet" version="1.2"><g id="ff5eb92911"><path style=" stroke:none;fill-rule:nonzero;fill:#ef9645;fill-opacity:1;" d="M 84.988281 245.199219 C 84.988281 245.199219 104.878906 246.449219 107.207031 224.472656 L 107.390625 176.777344 L 108.855469 176.71875 L 108.855469 165.714844 C 108.855469 154.804688 115.40625 145.4375 124.761719 141.265625 C 121.992188 145.058594 121.523438 223.523438 121.523438 223.523438 C 121.523438 236.175781 130.558594 245.199219 143.214844 245.199219 C 151.859375 245.199219 157.703125 241.597656 161.605469 234.515625 C 156.363281 228.484375 153.199219 220.691406 153.199219 212.058594 C 153.199219 197.019531 162.144531 187.519531 166.121094 186.589844 C 166.121094 186.589844 166.761719 185.789062 167.058594 185.625 C 171.273438 182.121094 176.265625 179.496094 181.84375 178.359375 L 182.074219 178.371094 L 185.0625 176.59375 L 264.40625 176.59375 C 279.363281 176.59375 282.25 182.164062 282.023438 182.039062 L 282.25 182.164062 C 289.019531 185.660156 294.574219 191.027344 298.332031 197.640625 C 298.042969 197.285156 290.53125 190.382812 280.660156 190.382812 C 270.785156 190.382812 189.035156 189.84375 189.035156 189.84375 C 176.390625 189.84375 166.988281 199.394531 166.988281 212.058594 C 166.988281 224.726562 176.382812 234.089844 189.035156 234.089844 L 252.027344 233.90625 C 255.1875 233.90625 258.796875 237.542969 258.796875 240.714844 C 258.796875 243.878906 255.199219 247.34375 252.027344 247.34375 C 252.027344 247.34375 234.183594 246.550781 219.421875 261.671875 C 205.574219 275.859375 195.621094 305.261719 195.621094 326.6875 C 195.621094 329.851562 192.199219 333.3125 189.035156 333.3125 C 185.875 333.3125 182.371094 329.851562 182.371094 326.6875 C 182.371094 292.183594 193.148438 263.355469 213.867188 247.695312 L 189.023438 247.695312 C 177.570312 247.695312 174.445312 244.898438 172.144531 243.582031 C 172.15625 243.59375 164.113281 259.160156 143.214844 259.160156 C 140.5 259.160156 124.566406 258.621094 114.730469 244.648438 C 101.847656 260.949219 85.238281 259.160156 85.238281 259.160156 C 76.84375 259.160156 67.304688 255.398438 63.363281 249.613281 C 63.214844 248.566406 63.042969 247.535156 63.042969 246.449219 L 63.042969 224.472656 C 63.042969 236.613281 72.859375 245.199219 84.988281 245.199219 Z M 84.988281 245.199219 "/><path style=" stroke:none;fill-rule:nonzero;fill:#ffdc5d;fill-opacity:1;" d="M 264.394531 177.671875 L 189.023438 177.671875 C 186.644531 177.671875 184.316406 177.914062 182.074219 178.371094 L 181.238281 175.183594 L 143.75 32.3125 C 143.75 32.3125 138.988281 9.878906 161.390625 5.125 C 183.789062 0.355469 188.554688 22.777344 188.554688 22.777344 L 224.023438 155.386719 C 229.132812 155.664062 234.082031 156.109375 238.972656 156.613281 L 262.574219 36.117188 C 262.574219 36.117188 264.726562 13.296875 287.542969 15.441406 C 310.34375 17.59375 308.191406 40.417969 308.191406 40.417969 L 284.542969 168.351562 L 282.011719 182.039062 C 276.695312 179.34375 270.765625 177.671875 264.394531 177.671875 Z M 84.988281 154.746094 L 86.910156 154.746094 C 99.039062 154.746094 108.855469 164.582031 108.855469 176.71875 L 108.855469 224.472656 C 108.855469 236.613281 99.039062 246.449219 86.910156 246.449219 L 84.988281 246.449219 C 72.859375 246.449219 63.042969 236.613281 63.042969 224.472656 L 63.042969 176.71875 C 63.042969 164.582031 72.859375 154.746094 84.988281 154.746094 Z M 154.667969 212.058594 C 154.667969 220.691406 157.953125 228.484375 163.199219 234.515625 C 159.292969 241.585938 151.859375 246.449219 143.214844 246.449219 C 130.570312 246.449219 120.308594 236.175781 120.308594 223.523438 L 120.308594 154.746094 C 120.308594 149.691406 121.992188 145.058594 124.761719 141.265625 C 128.933594 135.570312 135.609375 131.820312 143.214844 131.820312 C 155.859375 131.820312 166.121094 142.089844 166.121094 154.746094 L 166.121094 186.589844 C 159.144531 192.882812 154.667969 201.902344 154.667969 212.058594 Z M 154.667969 212.058594 "/><path style=" stroke:none;fill-rule:nonzero;fill:#ffdc5d;fill-opacity:1;" d="M 86.660156 257.910156 C 98.386719 257.910156 108.707031 251.882812 114.71875 242.757812 C 116.128906 244.855469 117.824219 246.722656 119.65625 248.453125 C 120.214844 248.980469 120.824219 249.429688 121.429688 249.921875 C 122.792969 251.054688 124.214844 252.085938 125.746094 253.003906 C 126.503906 253.453125 127.257812 253.851562 128.050781 254.242188 C 129.652344 255.035156 131.3125 255.675781 133.03125 256.214844 C 133.800781 256.453125 134.53125 256.742188 135.324219 256.925781 C 137.875 257.519531 140.5 257.910156 143.214844 257.910156 C 145.917969 257.910156 148.492188 257.496094 151.011719 256.890625 C 151.882812 256.683594 152.707031 256.410156 153.566406 256.132812 C 155.136719 255.628906 156.648438 255 158.101562 254.289062 C 159.042969 253.828125 159.96875 253.417969 160.851562 252.867188 C 162.730469 251.71875 164.492188 250.425781 166.121094 248.957031 C 168.433594 246.847656 170.515625 244.523438 172.1875 241.875 L 172.15625 241.839844 C 174.445312 243.15625 177.570312 246.449219 189.023438 246.449219 L 218.082031 246.449219 C 197.363281 262.09375 183.296875 292.183594 183.296875 326.6875 C 183.296875 329.851562 185.863281 332.417969 189.023438 332.417969 C 192.1875 332.417969 194.75 329.851562 194.75 326.6875 C 194.75 282.453125 219.796875 246.449219 250.585938 246.449219 L 252.015625 246.449219 C 255.175781 246.449219 257.742188 243.878906 257.742188 240.714844 C 257.742188 237.550781 255.175781 234.984375 252.015625 234.984375 L 189.023438 234.984375 C 176.382812 234.984375 166.121094 224.714844 166.121094 212.058594 C 166.121094 199.40625 176.382812 189.132812 189.023438 189.132812 L 280.648438 189.132812 C 281.015625 189.132812 281.359375 189.226562 281.722656 189.25 C 282.558594 189.285156 283.386719 189.363281 284.199219 189.5 C 284.910156 189.617188 285.59375 189.742188 286.28125 189.925781 C 287.015625 190.121094 287.714844 190.328125 288.425781 190.589844 C 289.132812 190.84375 289.820312 191.128906 290.496094 191.449219 C 291.148438 191.757812 291.769531 192.113281 292.386719 192.480469 C 293.027344 192.859375 293.636719 193.25 294.230469 193.707031 C 294.828125 194.144531 295.398438 194.625 295.949219 195.128906 C 296.476562 195.597656 296.980469 196.09375 297.460938 196.621094 C 297.769531 196.953125 298.042969 197.308594 298.320312 197.664062 L 298.914062 198.382812 C 299.351562 198.96875 299.75 199.554688 300.128906 200.171875 C 300.519531 200.816406 300.863281 201.457031 301.195312 202.132812 C 301.539062 202.84375 301.835938 203.566406 302.109375 204.3125 C 302.246094 204.667969 302.441406 205 302.558594 205.375 L 315.007812 246.449219 C 316.1875 250.289062 320.492188 267.894531 319.714844 271.5625 C 319.714844 326.6875 265.929688 384 200.476562 384 C 125.609375 384 64.832031 324.039062 63.203125 249.496094 L 63.363281 249.613281 C 69.261719 254.710938 76.832031 257.910156 85.238281 257.910156 Z M 86.660156 257.910156 "/></g></svg>